<mxfile host="drawio-plugin" modified="2024-01-16T10:18:39.483Z" agent="5.0 (Windows NT 6.2; Win64; x64) AppleWebKit/537.36 (KHTML, like Gecko) Chrome/104.0.5112.102 Safari/537.36" etag="k-9mJ9GjK1K7tcPvtiMR" version="20.5.3" type="embed"><diagram id="OUYnMJX3onQ8x5UBOmD4" name="Page-1"><mxGraphModel dx="664" dy="563" grid="1" gridSize="10" guides="1" tooltips="1" connect="1" arrows="1" fold="1" page="1" pageScale="1" pageWidth="850" pageHeight="1100" math="0" shadow="0"><root><mxCell id="0"/><mxCell id="1" parent="0"/><mxCell id="63" style="edgeStyle=orthogonalEdgeStyle;rounded=0;orthogonalLoop=1;jettySize=auto;html=1;exitX=1;exitY=0.5;exitDx=0;exitDy=0;entryX=0;entryY=0.5;entryDx=0;entryDy=0;" edge="1" parent="1" source="61" target="62"><mxGeometry relative="1" as="geometry"/></mxCell><mxCell id="61" value="startProgramm" style="ellipse;whiteSpace=wrap;html=1;aspect=fixed;fillColor=#60a917;fontColor=#ffffff;strokeColor=#2D7600;" vertex="1" parent="1"><mxGeometry x="50" y="25" width="80" height="80" as="geometry"/></mxCell><mxCell id="66" style="edgeStyle=orthogonalEdgeStyle;rounded=0;orthogonalLoop=1;jettySize=auto;html=1;exitX=1;exitY=0.5;exitDx=0;exitDy=0;entryX=0;entryY=0.5;entryDx=0;entryDy=0;" edge="1" parent="1" source="62" target="64"><mxGeometry relative="1" as="geometry"><mxPoint x="310" y="100" as="targetPoint"/></mxGeometry></mxCell><mxCell id="62" value="entering the arr&amp;nbsp; &amp;nbsp; &amp;nbsp; &amp;nbsp; &amp;nbsp;size" style="shape=manualInput;whiteSpace=wrap;html=1;size=13;" vertex="1" parent="1"><mxGeometry x="180" y="40" width="90" height="50" as="geometry"/></mxCell><mxCell id="69" style="edgeStyle=orthogonalEdgeStyle;rounded=0;orthogonalLoop=1;jettySize=auto;html=1;exitX=1;exitY=0.5;exitDx=0;exitDy=0;entryX=0.525;entryY=0.053;entryDx=0;entryDy=0;entryPerimeter=0;" edge="1" parent="1" source="64" target="67"><mxGeometry relative="1" as="geometry"><mxPoint x="540" y="120" as="targetPoint"/><Array as="points"><mxPoint x="570" y="70"/><mxPoint x="570" y="120"/><mxPoint x="353" y="120"/></Array></mxGeometry></mxCell><mxCell id="64" value="random array filling" style="rounded=1;whiteSpace=wrap;html=1;" vertex="1" parent="1"><mxGeometry x="320" y="55" width="120" height="30" as="geometry"/></mxCell><mxCell id="67" value="while isFounded" style="text;html=1;align=center;verticalAlign=middle;resizable=0;points=[];autosize=1;strokeColor=none;fillColor=none;" vertex="1" parent="1"><mxGeometry x="295" y="140" width="110" height="30" as="geometry"/></mxCell><mxCell id="78" style="edgeStyle=orthogonalEdgeStyle;rounded=0;orthogonalLoop=1;jettySize=auto;html=1;exitX=0;exitY=0.75;exitDx=0;exitDy=0;entryX=0.75;entryY=0;entryDx=0;entryDy=0;" edge="1" parent="1" source="71" target="76"><mxGeometry relative="1" as="geometry"/></mxCell><mxCell id="79" style="edgeStyle=orthogonalEdgeStyle;rounded=0;orthogonalLoop=1;jettySize=auto;html=1;exitX=1;exitY=0.75;exitDx=0;exitDy=0;entryX=0.123;entryY=-0.06;entryDx=0;entryDy=0;entryPerimeter=0;" edge="1" parent="1" source="71" target="77"><mxGeometry relative="1" as="geometry"/></mxCell><mxCell id="71" value="intering a digit" style="shape=manualInput;whiteSpace=wrap;html=1;size=13;" vertex="1" parent="1"><mxGeometry x="305" y="210" width="90" height="40" as="geometry"/></mxCell><mxCell id="74" value="" style="endArrow=classic;html=1;rounded=0;exitX=0.535;exitY=1.053;exitDx=0;exitDy=0;exitPerimeter=0;entryX=0.553;entryY=0.127;entryDx=0;entryDy=0;entryPerimeter=0;" edge="1" parent="1" source="67" target="71"><mxGeometry width="50" height="50" relative="1" as="geometry"><mxPoint x="340" y="280" as="sourcePoint"/><mxPoint x="390" y="230" as="targetPoint"/></mxGeometry></mxCell><mxCell id="82" style="edgeStyle=orthogonalEdgeStyle;rounded=0;orthogonalLoop=1;jettySize=auto;html=1;exitX=1;exitY=0.5;exitDx=0;exitDy=0;entryX=0.5;entryY=0;entryDx=0;entryDy=0;" edge="1" parent="1" source="76" target="80"><mxGeometry relative="1" as="geometry"/></mxCell><mxCell id="76" value="usuall search(array, digit)" style="rounded=1;whiteSpace=wrap;html=1;" vertex="1" parent="1"><mxGeometry x="100" y="270" width="150" height="40" as="geometry"/></mxCell><mxCell id="84" style="edgeStyle=orthogonalEdgeStyle;rounded=0;orthogonalLoop=1;jettySize=auto;html=1;exitX=0;exitY=0.5;exitDx=0;exitDy=0;entryX=0.5;entryY=0;entryDx=0;entryDy=0;" edge="1" parent="1" source="77" target="80"><mxGeometry relative="1" as="geometry"><mxPoint x="320" y="290" as="targetPoint"/></mxGeometry></mxCell><mxCell id="77" value="binary search(array, digit)" style="rounded=1;whiteSpace=wrap;html=1;" vertex="1" parent="1"><mxGeometry x="480" y="270" width="120" height="40" as="geometry"/></mxCell><mxCell id="85" style="edgeStyle=orthogonalEdgeStyle;rounded=0;orthogonalLoop=1;jettySize=auto;html=1;exitX=0.5;exitY=1;exitDx=0;exitDy=0;entryX=0.5;entryY=0;entryDx=0;entryDy=0;" edge="1" parent="1" source="80" target="81"><mxGeometry relative="1" as="geometry"/></mxCell><mxCell id="80" value="data" style="shape=parallelogram;perimeter=parallelogramPerimeter;whiteSpace=wrap;html=1;fixedSize=1;" vertex="1" parent="1"><mxGeometry x="285" y="340" width="75" height="30" as="geometry"/></mxCell><mxCell id="81" value="end programm" style="ellipse;whiteSpace=wrap;html=1;aspect=fixed;fillColor=#a20025;fontColor=#ffffff;strokeColor=#6F0000;" vertex="1" parent="1"><mxGeometry x="282.5" y="420" width="80" height="80" as="geometry"/></mxCell></root></mxGraphModel></diagram></mxfile>